PathFileType	4	(X/Y/Z)	Walk7.trc
DataRate	CameraRate	NumFrames	NumMarkers	Units	OrigDataRate	OrigDataStartFrame	OrigNumFrames
200.000000	200.000000	7	61	mm	200.000000	403	437
Frame#	Times		LFHD		RFHD		CLAV		STRN		LASI		RASI		RACR1		RUA1		RFA1		RWRU		RCAR		LACR1		LUA1		LFA1		LWRU		LCAR		RTH3		RTB4		LTH1		LTH3		LTH2		LTH4		LLFC		LTB1		LTB3		LTB2		LTB4		RTB1		RTB3		RMT5		RMFC		LBHD		RWRR		RTH2		RToe		RMT1		LElbow		RLFC		LWRR		RTB2		RMMAL		RTH4		RElbow		LMFC		LToe		LPSI		T10		RBack		RLMAL		RBHD		RTH1		RCAL		RPSI		C7		LElbowM		LMMAL		RElbowM		LLMAL		LCAL		LMT5		LMT1
			X1	Y1	Z1	X2	Y2	Z2	X3	Y3	Z3	X4	Y4	Z4	X5	Y5	Z5	X6	Y6	Z6	X7	Y7	Z7	X8	Y8	Z8	X9	Y9	Z9	X10	Y10	Z10	X11	Y11	Z11	X12	Y12	Z12	X13	Y13	Z13	X14	Y14	Z14	X15	Y15	Z15	X16	Y16	Z16	X17	Y17	Z17	X18	Y18	Z18	X19	Y19	Z19	X20	Y20	Z20	X21	Y21	Z21	X22	Y22	Z22	X23	Y23	Z23	X24	Y24	Z24	X25	Y25	Z25	X26	Y26	Z26	X27	Y27	Z27	X28	Y28	Z28	X29	Y29	Z29	X30	Y30	Z30	X31	Y31	Z31	X32	Y32	Z32	X33	Y33	Z33	X34	Y34	Z34	X35	Y35	Z35	X36	Y36	Z36	X37	Y37	Z37	X38	Y38	Z38	X39	Y39	Z39	X40	Y40	Z40	X41	Y41	Z41	X42	Y42	Z42	X43	Y43	Z43	X44	Y44	Z44	X45	Y45	Z45	X46	Y46	Z46	X47	Y47	Z47	X48	Y48	Z48	X49	Y49	Z49	X50	Y50	Z50	X51	Y51	Z51	X52	Y52	Z52	X53	Y53	Z53	X54	Y54	Z54	X55	Y55	Z55	X56	Y56	Z56	X57	Y57	Z57	X58	Y58	Z58	X59	Y59	Z59	X60	Y60	Z60	X61	Y61	Z61

403	2.015	1361.4	1593.4	-85.947	1353.9	1598.4	13.203	1305.4	1324.2	-30.765	1325.6	1191.1	-20.399	1276.8	916.08	-121.84	1274.3	931.73	125.04	1231.7	1365	133.14	1216.1	1198.3	195.28	1237.9	912.19	267.56	1291.1	796.65	241.59	1278	731.68	292.31	1236.7	1370.3	-185.18	1236.2	1199.7	-254.48	1321.4	931.42	-317.91	1424.2	861.41	-304.64	1432.4	793.35	-342.63	1333.6	614.23	172.12	1333.2	290.21	110.89	1210.7	751.09	-183.35	1180.5	585.41	-149.83	1249.7	664.2	-143.99	1194.7	666.84	-168.58	1150.4	445.75	-126.08	1172.6	345.98	-56.579	1134.6	180.64	-38.977	1137	260.09	-108.03	1150.8	262.89	-48.439	1374.9	366.03	119.13	1292.1	215.59	99.985	1275.6	58.614	122.53	1386.4	473.8	20.441	1218	1534.4	-117.16	1232.8	791.45	277.54	1346.6	719.21	171.03	1362.2	50.509	86.157	1319.2	63.513	47.806	1235.4	1044.6	-290.78	1387.2	478.48	148.78	1366.4	822.73	-308.6	1288.7	311.77	146.92	1224.6	149.52	29.318	1297.2	689.88	187.56	1196.7	1035.3	236.2	1119.6	444.32	4.7809	1259.4	26.282	-31.485	1102.3	977.84	-51.251	1115.4	1218.9	-23.113	1114.9	1307.6	40.08	1196	137.56	107.51	1209.4	1547.8	28.261	1260.6	766.73	205.03	1143.9	128.74	58.526	1103.4	971.7	49.325	1196.6	1428	-37.095	1225.8	1017.6	-218.97	1082.3	95.473	2.3692	1169.6	1026.2	161.48	1067.4	74.826	-76.432	1010.3	50.866	-34.311	1170.9	24.117	-86.737	1203.1	31.58	-4.4716
404	2.02	1368.7	1593.1	-85.767	1361	1597.9	13.376	1312.7	1323.7	-30.863	1332.9	1190.5	-20.564	1283.5	915.56	-122	1282	931.16	124.98	1238.9	1364.5	133.02	1222.4	1197.9	195.3	1242.2	911.83	268.18	1294.9	795.9	242.92	1280.8	731.11	293.6	1244.2	1370	-185.21	1244.5	1199.6	-254.87	1334.3	933.3	-318.13	1438.7	865.88	-303.97	1449	797.93	-341.62	1342.8	614.6	171.79	1349.5	289.54	110.63	1215.9	750.92	-183.4	1183.9	585.58	-149.81	1253.9	663.56	-144	1199.1	666.82	-168.62	1152.3	446.17	-126.27	1174.1	346.22	-56.769	1135.3	181.08	-39.156	1138	260.52	-108.2	1151.9	263.27	-48.612	1388.4	366.78	118.76	1311.2	213.52	99.815	1300.4	56.413	122.85	1396.2	474.97	20.196	1225.4	1533.9	-117.28	1236.1	791.07	278.26	1354.9	719.66	171.52	1387.2	51.465	86.614	1343.9	62.827	48.194	1245.4	1044.5	-291.54	1397.5	479.4	148.2	1381.9	825.67	-308.59	1304.4	309.44	146.85	1246.2	145	29.322	1305.7	689.77	187.46	1202.1	1035.1	236.33	1121.7	444.92	4.6983	1259.5	26.202	-31.555	1109.4	977.47	-50.662	1122.7	1218.5	-23.171	1122.2	1307.1	39.776	1218	132.06	107.56	1216.6	1547.1	28.163	1268.5	766.32	205.48	1166.3	121.31	58.393	1110.9	971.25	49.888	1204	1427.5	-37.256	1235.7	1017.2	-219.98	1082.6	96.161	2.3601	1175.4	1025.9	161.58	1067.6	75.56	-76.386	1010.5	51.856	-34.2	1170.9	24.125	-86.675	1203.1	31.557	-4.5004
405	2.025	1375.9	1592.7	-85.601	1368.2	1597.4	13.536	1320.1	1323	-30.954	1340.2	1189.8	-20.721	1290.2	914.99	-122.18	1289.8	930.49	124.91	1246.1	1363.9	132.9	1228.7	1197.5	195.34	1246.6	911.42	268.82	1298.7	795.13	244.26	1283.8	730.49	294.87	1251.8	1369.6	-185.23	1252.9	1199.3	-255.23	1347	935.19	-318.32	1452.9	870.33	-303.23	1465.4	802.55	-340.57	1351.8	614.8	171.42	1365.7	288.89	110.32	1221.1	750.71	-183.48	1187.5	585.72	-149.81	1258.2	662.93	-144.09	1203.5	666.78	-168.68	1154.4	446.57	-126.45	1175.8	346.42	-56.948	1136.2	181.5	-39.337	1139.1	260.94	-108.38	1153.1	263.62	-48.78	1401.7	367.48	118.33	1330.3	211.55	99.618	1325.2	54.502	123.17	1405.5	475.94	19.93	1232.8	1533.3	-117.41	1239.6	790.66	278.97	1363.2	719.91	171.99	1412.2	52.765	87.039	1368.7	62.454	48.568	1255.3	1044.4	-292.28	1407.5	480.13	147.6	1397.2	828.64	-308.54	1320.3	307.05	146.79	1268.1	140.64	29.336	1314.2	689.54	187.39	1207.5	1034.8	236.48	1124	445.49	4.6256	1259.5	26.113	-31.615	1116.4	977.03	-50.013	1130.1	1218	-23.195	1129.6	1306.5	39.512	1240.2	126.71	107.64	1223.8	1546.3	28.063	1276.3	765.79	205.94	1189	114.01	58.293	1118.3	970.73	50.501	1211.5	1427	-37.401	1245.6	1016.7	-220.98	1083	96.849	2.338	1181.2	1025.6	161.71	1067.7	76.302	-76.352	1010.7	52.875	-34.105	1170.8	24.129	-86.61	1203.1	31.528	-4.5234
406	2.03	1383.2	1592.2	-85.45	1375.3	1596.8	13.682	1327.4	1322.3	-31.038	1347.5	1189	-20.869	1296.9	914.36	-122.39	1297.6	929.75	124.83	1253.4	1363.3	132.81	1235	1197	195.39	1251.1	910.97	269.47	1302.6	794.33	245.6	1286.8	729.84	296.12	1259.4	1369.1	-185.23	1261.3	1199	-255.56	1359.7	937.08	-318.48	1466.9	874.75	-302.44	1481.6	807.21	-339.47	1360.5	614.83	171.01	1381.9	288.29	109.98	1226.2	750.47	-183.59	1191.1	585.83	-149.82	1262.5	662.31	-144.23	1207.9	666.73	-168.77	1156.6	446.94	-126.62	1177.5	346.58	-57.115	1137	181.91	-39.517	1140.3	261.34	-108.55	1154.4	263.95	-48.94	1414.8	368.14	117.85	1349.4	209.71	99.399	1350.2	52.912	123.48	1414.5	476.69	19.647	1240.3	1532.6	-117.54	1243	790.2	279.67	1371.4	719.98	172.43	1437.1	54.435	87.423	1393.6	62.424	48.916	1265.3	1044.3	-292.99	1417.2	480.68	146.99	1412.2	831.65	-308.45	1336.1	304.65	146.74	1290	136.46	29.36	1322.5	689.17	187.34	1213	1034.5	236.64	1126.5	446.02	4.5657	1259.6	26.014	-31.666	1123.4	976.52	-49.307	1137.5	1217.5	-23.184	1137	1305.9	39.288	1262.6	121.54	107.73	1231	1545.5	27.959	1284.1	765.14	206.4	1212	106.9	58.223	1125.8	970.15	51.164	1219	1426.4	-37.527	1255.4	1016.2	-221.95	1083.4	97.537	2.3042	1187.1	1025.2	161.85	1068	77.055	-76.329	1010.8	53.922	-34.025	1170.8	24.129	-86.542	1203.2	31.495	-4.5419
407	2.035	1390.5	1591.7	-85.314	1382.4	1596.2	13.813	1334.9	1321.5	-31.115	1354.9	1188.1	-21.006	1303.5	913.68	-122.61	1305.5	928.92	124.73	1260.8	1362.6	132.72	1241.4	1196.5	195.47	1255.6	910.49	270.13	1306.6	793.5	246.94	1289.8	729.15	297.34	1267	1368.6	-185.21	1269.7	1198.7	-255.85	1372.3	938.96	-318.6	1480.7	879.11	-301.6	1497.5	811.89	-338.34	1369.1	614.68	170.55	1397.9	287.75	109.6	1231.3	750.21	-183.72	1194.7	585.91	-149.84	1266.8	661.69	-144.44	1212.3	666.67	-168.86	1158.9	447.28	-126.78	1179.4	346.7	-57.266	1138	182.3	-39.693	1141.6	261.72	-108.72	1155.8	264.25	-49.09	1427.8	368.76	117.34	1368.5	208.02	99.162	1375.3	51.672	123.76	1423.2	477.19	19.349	1247.7	1531.8	-117.66	1246.6	789.72	280.37	1379.4	719.85	172.84	1462	56.495	87.754	1418.4	62.759	49.228	1275.2	1044.1	-293.67	1426.7	481.06	146.36	1427.1	834.68	-308.32	1351.9	302.25	146.7	1312	132.5	29.39	1330.7	688.68	187.3	1218.5	1034.2	236.82	1129.2	446.52	4.5212	1259.6	25.907	-31.709	1130.5	975.94	-48.542	1144.9	1216.9	-23.138	1144.5	1305.3	39.106	1285.2	116.59	107.84	1238.3	1544.6	27.853	1291.9	764.37	206.87	1235.2	100.01	58.181	1133.4	969.49	51.874	1226.5	1425.7	-37.633	1265.3	1015.6	-222.9	1083.9	98.226	2.2605	1193	1024.7	162.02	1068.2	77.82	-76.317	1011	54.999	-33.954	1170.7	24.126	-86.47	1203.2	31.458	-4.5563
408	2.04	1397.8	1591.2	-85.194	1389.6	1595.6	13.929	1342.4	1320.7	-31.184	1362.3	1187.1	-21.132	1310.2	912.96	-122.86	1313.4	928.03	124.63	1268.3	1361.8	132.66	1247.9	1196	195.57	1260.2	909.98	270.79	1310.6	792.66	248.27	1293	728.43	298.53	1274.6	1368	-185.16	1278.1	1198.3	-256.11	1384.8	940.84	-318.68	1494.3	883.42	-300.71	1513.1	816.56	-337.18	1377.5	614.36	170.07	1413.9	287.29	109.21	1236.5	749.93	-183.88	1198.4	585.97	-149.88	1271.2	661.08	-144.7	1216.8	666.6	-168.97	1161.5	447.6	-126.91	1181.3	346.79	-57.398	1138.9	182.67	-39.863	1143	262.09	-108.89	1157.2	264.52	-49.231	1440.5	369.35	116.82	1387.6	206.51	98.912	1400.4	50.802	124.01	1431.4	477.45	19.041	1255.2	1531	-117.78	1250.3	789.2	281.07	1387.4	719.52	173.23	1486.8	58.959	88.02	1443.1	63.481	49.493	1285.2	1043.9	-294.32	1436	481.25	145.74	1441.7	837.72	-308.14	1367.7	299.87	146.67	1334.1	128.81	29.424	1338.9	688.06	187.27	1224.1	1033.8	237.01	1132.1	446.98	4.4944	1259.7	25.793	-31.745	1137.5	975.3	-47.722	1152.3	1216.3	-23.058	1152	1304.6	38.967	1307.9	111.9	107.94	1245.5	1543.6	27.745	1299.7	763.49	207.35	1258.7	93.377	58.163	1140.9	968.78	52.63	1234.1	1425	-37.717	1275.2	1014.9	-223.81	1084.4	98.917	2.2091	1199	1024.2	162.2	1068.5	78.598	-76.312	1011.2	56.109	-33.889	1170.7	24.12	-86.393	1203.2	31.418	-4.5669
409	2.045	1405	1590.6	-85.089	1396.7	1594.9	14.031	1349.9	1319.8	-31.245	1369.7	1186.1	-21.245	1316.8	912.21	-123.13	1321.3	927.07	124.51	1275.8	1361	132.61	1254.4	1195.4	195.68	1264.9	909.43	271.47	1314.7	791.79	249.59	1296.3	727.67	299.69	1282.3	1367.4	-185.09	1286.5	1197.9	-256.33	1397.1	942.7	-318.72	1507.6	887.65	-299.78	1528.4	821.22	-336.01	1385.7	613.86	169.57	1429.7	286.92	108.81	1241.6	749.63	-184.05	1202.2	586.01	-149.93	1275.6	660.48	-145.01	1221.3	666.51	-169.08	1164.1	447.89	-127.02	1183.4	346.85	-57.512	1140	183.02	-40.026	1144.4	262.44	-109.05	1158.8	264.77	-49.362	1453	369.91	116.28	1406.6	205.2	98.656	1425.4	50.319	124.21	1439.3	477.46	18.726	1262.6	1530.1	-117.9	1254	788.66	281.77	1395.4	719	173.58	1511.4	61.832	88.209	1467.7	64.601	49.702	1295.1	1043.6	-294.94	1445	481.28	145.14	1456.1	840.76	-307.91	1383.4	297.56	146.64	1356.2	125.39	29.457	1346.8	687.3	187.25	1229.7	1033.3	237.22	1135.2	447.41	4.4868	1259.8	25.674	-31.776	1144.5	974.6	-46.848	1159.8	1215.6	-22.944	1159.5	1303.9	38.872	1330.7	107.52	108.05	1252.7	1542.6	27.637	1307.4	762.51	207.84	1282.3	87.053	58.165	1148.5	968	53.43	1241.7	1424.3	-37.775	1285	1014.3	-224.67	1084.9	99.613	2.1526	1205	1023.7	162.4	1068.8	79.392	-76.313	1011.5	57.255	-33.824	1170.6	24.112	-86.31	1203.2	31.374	-4.5737
